<svg xmlns="http://www.w3.org/2000/svg" width="32" height="16" viewBox="0 0 32 16">
    <g fill="none" fill-rule="evenodd">
        <g fill="#5454D4" fill-rule="nonzero">
            <g>
                <g>
                    <g>
                        <g>
                            <g>
                                <path d="M24.613 2.466c-2.177 0-5.805 2.624-9.645 5.403-3.372 2.44-7.194 5.205-8.981 5.205-2.567 0-4.657-2.082-4.657-4.64 0-2.56 2.09-4.642 4.657-4.642.45 0 1.058.17 1.788.483l-1.674 3.05c-.125.227-.105.506.05.713.126.171.326.268.534.268.044 0 .09-.005.136-.014l5.954-1.24c.189-.04.352-.159.446-.328.093-.169.109-.37.041-.55L11.138.434c-.09-.244-.315-.413-.575-.432-.255-.021-.508.116-.632.344L8.414 3.112c-.963-.423-1.78-.646-2.427-.646C2.685 2.466 0 5.143 0 8.433c0 3.29 2.685 5.967 5.987 5.967 2.218 0 5.883-2.651 9.763-5.458 3.336-2.414 7.118-5.15 8.863-5.15 2.567 0 4.657 2.083 4.657 4.641 0 2.559-2.09 4.641-4.657 4.641-1.054 0-2.968-.902-5.39-2.541-.304-.207-.718-.126-.925.176-.207.303-.127.716.177.921 2.717 1.838 4.782 2.77 6.138 2.77 3.302 0 5.987-2.676 5.987-5.967 0-3.29-2.685-5.967-5.987-5.967z" transform="translate(-1047 -2030) translate(221.4 807.3) translate(45.9 945) translate(684 253.8) translate(80.1) translate(16.2 24.3)"/>
                            </g>
                        </g>
                    </g>
                </g>
            </g>
        </g>
    </g>
</svg>
