<svg xmlns="http://www.w3.org/2000/svg" width="32" height="27" viewBox="0 0 32 27">
    <g fill="none" fill-rule="evenodd">
        <g fill="#5454D4" fill-rule="nonzero">
            <g>
                <g>
                    <g>
                        <g>
                            <path d="M16.2 25.2H1.944C.87 25.2 0 24.31 0 23.21V1.99C0 .89.87 0 1.944 0H16.2v1.326H1.944c-.358 0-.648.297-.648.663v21.222c0 .366.29.663.648.663H16.2V25.2zM28.61 0H18v25.2h10.61c1.1 0 1.99-.89 1.99-1.99V1.99C30.6.89 29.71 0 28.61 0zm-1.989 18.568H21.98c-.366 0-.663-.296-.663-.663 0-.366.297-.663.663-.663h4.642c.366 0 .663.297.663.663 0 .367-.297.663-.663.663zm0-5.305H21.98c-.366 0-.663-.297-.663-.663 0-.366.297-.663.663-.663h4.642c.366 0 .663.297.663.663 0 .366-.297.663-.663.663zm0-5.305H21.98c-.366 0-.663-.297-.663-.663 0-.367.297-.663.663-.663h4.642c.366 0 .663.296.663.663 0 .366-.297.663-.663.663z" transform="translate(-363 -1771) translate(221.4 807.3) translate(45.9 945) translate(80.1) translate(16.2 18.9)"/>
                        </g>
                    </g>
                </g>
            </g>
        </g>
    </g>
</svg>
