<svg xmlns="http://www.w3.org/2000/svg" width="26" height="26" viewBox="0 0 26 26">
    <g fill="none" fill-rule="evenodd">
        <g fill="#FEDC5A" fill-rule="nonzero">
            <g>
                <g>
                    <g>
                        <g>
                            <g>
                                <path d="M11.7 3.759c-3.149-.656-6.505.74-8.889 3.826-.162.21-.145.511.041.7L5.325 10.8C6.983 8.056 9.148 5.665 11.7 3.759zM14.4 19.879l2.523 2.47c.188.185.488.202.698.04 3.098-2.383 4.493-5.743 3.808-8.889-1.905 2.547-4.29 4.712-7.029 6.379z" transform="translate(-1050 -1772) translate(221.4 807.3) translate(45.9 945) translate(684) translate(80.1) translate(18.9 19.8)"/>
                                <path d="M24.147.157c-.102-.107-.247-.165-.396-.156C9.453.747 4.581 13.238 4.533 13.364c-.072.191-.025.407.12.552l5.731 5.731c.098.098.23.153.369.153.063 0 .127-.011.186-.034.126-.049 12.551-4.981 13.36-19.214.008-.148-.048-.29-.152-.395zM13.88 12.506c-1.151 0-2.084-.934-2.084-2.085 0-1.15.933-2.084 2.084-2.084 1.15 0 2.084.933 2.084 2.084s-.933 2.085-2.084 2.085zM6.228 18.85c-1.299-1.134-3.401-1.134-4.7 0C.334 19.897.033 23.389.001 23.784c-.01.134.044.266.149.364.105.098.252.153.405.153h.037c.451-.027 4.442-.29 5.636-1.335 1.296-1.137 1.296-2.978 0-4.114z" transform="translate(-1050 -1772) translate(221.4 807.3) translate(45.9 945) translate(684) translate(80.1) translate(18.9 19.8)"/>
                            </g>
                        </g>
                    </g>
                </g>
            </g>
        </g>
    </g>
</svg>
